<?xml version="1.0" standalone="no"?>
<!DOCTYPE svg PUBLIC "-//W3C//DTD SVG 20010904//EN"
 "http://www.w3.org/TR/2001/REC-SVG-20010904/DTD/svg10.dtd">
<svg version="1.0" xmlns="http://www.w3.org/2000/svg"
 width="700.000000pt" height="700.000000pt" viewBox="0 0 700.000000 700.000000"
 preserveAspectRatio="xMidYMid meet">
<metadata>
Created by potrace 1.14, written by Peter Selinger 2001-2017
</metadata>
<g transform="translate(0.000000,700.000000) scale(0.100000,-0.100000)"
fill="#000000" stroke="none">
<path d="M2494 6914 c-249 -246 -404 -510 -464 -793 -18 -85 -21 -123 -17
-215 6 -130 10 -148 43 -230 34 -84 123 -216 145 -216 14 0 85 101 129 182 37
70 136 328 125 328 -2 0 0 12 6 28 6 15 17 59 25 97 7 39 16 81 18 94 3 13 8
48 12 79 3 30 8 63 9 71 2 9 4 27 5 41 2 21 3 19 10 -10 27 -118 35 -385 14
-502 -33 -194 -99 -379 -176 -497 l-22 -34 30 7 c16 4 72 28 124 53 153 76
256 193 309 350 12 34 23 79 26 100 4 21 8 45 11 53 6 17 6 224 0 260 -3 14
-7 43 -10 65 -24 187 -112 464 -219 689 l-42 89 -91 -89z"/>
<path d="M3724 5639 c-217 -20 -425 -103 -614 -245 -36 -27 -70 -43 -100 -48
-182 -28 -436 -104 -620 -186 -436 -193 -815 -513 -1079 -910 -178 -266 -321
-603 -376 -880 -15 -75 -37 -221 -44 -290 -8 -82 -7 -465 2 -505 2 -11 8 -42
11 -70 19 -135 31 -197 63 -315 87 -324 223 -605 419 -865 116 -154 211 -258
353 -385 292 -262 713 -483 1076 -566 44 -10 82 -19 85 -19 3 -1 28 -5 55 -10
28 -5 52 -10 55 -10 3 -1 32 -5 65 -9 33 -5 69 -11 80 -13 44 -10 406 -12 495
-3 477 48 931 221 1291 492 88 66 117 98 43 46 -80 -55 -238 -140 -349 -188
-27 -11 -59 -25 -70 -30 -41 -20 -234 -80 -330 -104 -275 -68 -566 -85 -854
-51 -70 9 -118 16 -166 25 -27 6 -59 12 -70 14 -329 65 -772 281 -1025 501
-291 253 -483 498 -633 807 -100 206 -189 488 -212 673 -4 28 -8 61 -11 75 -8
52 -18 209 -18 305 0 98 12 303 18 314 2 3 6 29 10 58 17 144 86 394 147 530
10 24 19 45 19 47 0 11 93 198 124 250 20 32 36 60 36 62 0 2 25 41 57 86 180
264 423 506 673 669 99 65 247 149 263 149 6 0 18 6 26 14 20 16 218 95 326
129 106 33 232 63 330 77 44 6 91 14 105 17 60 12 399 11 493 -3 240 -34 486
-129 623 -240 28 -22 26 -22 -52 6 -73 25 -219 60 -314 75 -166 25 -473 25
-670 0 -83 -10 -127 -16 -140 -20 -8 -2 -31 -6 -50 -9 -58 -9 -180 -35 -263
-58 -76 -20 -78 -21 -72 -47 20 -79 102 -210 180 -285 102 -98 326 -211 480
-242 11 -2 41 -8 66 -14 58 -14 71 -16 139 -25 30 -4 66 -9 80 -11 93 -16 268
-19 715 -15 197 2 256 -3 413 -35 109 -22 216 -59 299 -104 80 -43 76 -48 52
55 -28 123 -103 324 -164 440 -39 74 -103 182 -121 204 -7 9 -39 50 -71 91
-177 225 -383 379 -675 505 -179 76 -406 112 -604 94z"/>
<path d="M5674 4018 c61 -121 112 -257 151 -395 16 -58 43 -207 53 -292 9 -87
9 -367 -1 -456 -12 -101 -61 -318 -92 -405 -15 -41 -28 -79 -29 -85 -18 -61
-108 -245 -169 -344 -267 -431 -698 -760 -1172 -894 -162 -45 -218 -56 -400
-74 -124 -12 -380 -6 -465 12 -13 2 -42 7 -65 11 -104 15 -252 56 -385 107
-399 152 -771 458 -998 822 -91 147 -210 414 -237 535 -65 283 -75 365 -70
590 2 102 7 205 11 230 12 88 53 268 83 360 16 51 26 89 21 84 -25 -28 -138
-355 -155 -453 -3 -19 -7 -37 -9 -40 -2 -3 -7 -31 -11 -61 -4 -30 -9 -58 -11
-61 -15 -25 -22 -349 -11 -489 8 -93 10 -107 33 -225 110 -577 461 -1089 964
-1409 224 -142 553 -267 798 -301 20 -3 48 -8 62 -10 136 -23 446 -24 580 0
14 2 54 9 90 15 106 18 282 67 392 110 740 286 1261 952 1364 1745 16 124 9
495 -11 589 -2 11 -7 37 -9 56 -10 67 -66 270 -102 367 -42 113 -122 277 -185
378 -83 134 -87 129 -15 -17z"/>
<path d="M4880 3493 c-233 -25 -438 -120 -597 -278 -116 -117 -169 -204 -254
-418 -87 -223 -86 -220 -59 -177 107 166 273 325 414 397 125 64 293 95 422
78 l59 -8 -81 -21 c-209 -56 -402 -190 -608 -422 -78 -88 -197 -247 -246 -329
l-23 -40 34 31 c100 91 302 188 529 255 198 57 261 80 311 110 165 99 395 325
603 593 113 145 163 221 140 212 -48 -19 -249 -13 -358 10 -29 7 -243 12 -286
7z"/>
<path d="M2490 3469 c-139 -21 -290 -28 -333 -16 -27 7 -25 3 34 -75 238 -312
470 -550 659 -675 94 -62 146 -86 235 -107 294 -71 507 -158 654 -268 l54 -41
-48 69 c-157 222 -337 417 -485 526 -127 94 -277 164 -389 183 -75 12 -21 28
98 28 268 0 524 -149 714 -415 22 -32 42 -56 44 -54 2 2 -29 81 -68 177 -79
190 -131 279 -223 377 -236 251 -552 349 -946 291z"/>
<path d="M3233 2411 c-56 -19 -116 -57 -154 -97 l-23 -25 31 -29 c47 -44 148
-107 212 -131 69 -26 169 -32 237 -14 50 13 144 63 144 76 0 13 -76 64 -156
105 -45 24 -80 45 -78 47 20 20 231 -61 304 -117 13 -10 13 -9 1 7 -23 30
-133 107 -196 140 -117 59 -225 72 -322 38z"/>
<path d="M4205 2410 c-62 -20 -150 -69 -222 -123 -70 -53 -55 -54 46 -4 73 36
110 49 156 53 47 3 55 2 36 -6 -74 -32 -103 -48 -165 -88 l-69 -46 29 -23 c80
-64 241 -87 349 -49 92 33 245 139 245 170 0 17 -72 73 -132 103 -72 36 -186
42 -273 13z"/>
</g>
</svg>
